<?xml version="1.0" encoding="UTF-8"?>
<svg xmlns="http://www.w3.org/2000/svg" width="64" height="64" viewBox="0 0 512 512">
  <rect width="100%" height="100%" fill="#FFFFFF" />
  <circle cx="256" cy="256" r="220" fill="none" stroke="#F9A826" stroke-width="28"/>
  <g fill="#27AE60">
    <path d="M256 320c-6 0-10-4-10-10v-60c0-6 4-10 10-10s10 4 10 10v60c0 6-4 10-10 10z"/>
    <path d="M246 250c-36 0-60-18-68-48 32-6 68 8 82 36 2 4-4 12-14 12z"/>
    <path d="M266 250c36 0 60-18 68-48-32-6-68 8-82 36-2 4 4 12 14 12z"/>
  </g>
</svg>
